<svg width="20" height="34" viewBox="0 0 20 34" fill="none" xmlns="http://www.w3.org/2000/svg">
<path d="M19.6585 2.01562C19.8817 2.23884 19.9933 2.49553 19.9933 2.78571C19.9933 3.07589 19.8817 3.33259 19.6585 3.5558L6.5 16.7143L19.6585 29.8728C19.8817 30.096 19.9933 30.3527 19.9933 30.6429C19.9933 30.933 19.8817 31.1897 19.6585 31.4129L17.9844 33.0871C17.7612 33.3103 17.5045 33.4219 17.2143 33.4219C16.9241 33.4219 16.6674 33.3103 16.4442 33.0871L0.841518 17.4844C0.618304 17.2612 0.506696 17.0045 0.506696 16.7143C0.506696 16.4241 0.618304 16.1674 0.841518 15.9442L16.4442 0.341515C16.6674 0.118301 16.9241 0.00669336 17.2143 0.00669336C17.5045 0.00669336 17.7612 0.118301 17.9844 0.341515L19.6585 2.01562Z" fill="white"/>
</svg>
