<svg width="20" height="34" viewBox="0 0 20 34" fill="none" xmlns="http://www.w3.org/2000/svg">
<path d="M0.341517 2.01562C0.118302 2.23884 0.00669515 2.49553 0.00669515 2.78571C0.00669515 3.07589 0.118302 3.33259 0.341517 3.5558L13.5 16.7143L0.341517 29.8728C0.118302 30.096 0.00669515 30.3527 0.00669515 30.6429C0.00669515 30.933 0.118302 31.1897 0.341517 31.4129L2.01562 33.0871C2.23884 33.3103 2.49553 33.4219 2.78571 33.4219C3.07589 33.4219 3.33259 33.3103 3.5558 33.0871L19.1585 17.4844C19.3817 17.2612 19.4933 17.0045 19.4933 16.7143C19.4933 16.4241 19.3817 16.1674 19.1585 15.9442L3.5558 0.341515C3.33259 0.118301 3.07589 0.00669336 2.78571 0.00669336C2.49553 0.00669336 2.23884 0.118301 2.01562 0.341515L0.341517 2.01562Z" fill="white"/>
</svg>
